<svg version="1.1" id="img-logo-svg" xmlns="http://www.w3.org/2000/svg" x="0" y="0" viewBox="0 0 1064.93 224.92" xml:space="preserve"><path fill="#fff" d="M123.68 199.66h-2.03c-5.75-.34-8.62-6.26-12.68-14.03l-12.34-23.84c-5.58-10.65-11.5-16.91-20.8-18.43v-.68c5.24-1.52 12.85-5.92 16.74-20.63l3.38-12.68c1.02-4.06 2.71-13.7 6.59-13.7 2.03 0 2.71 1.69 3.38 3.38.84 2.37 2.54 5.75 6.59 5.75 3.72 0 7.78-3.04 7.78-9.3 0-6.42-3.89-10.82-9.81-10.82-11.5 0-16.4 11.83-18.43 18.94L88 117.48c-5.58 19.11-14.54 23.16-20.8 23.16h-3.04c-4.56 0-5.41-.34-5.41-4.4v-29.08c0-17.42 4.9-14.88 10.65-15.39 1.18-.17 2.71-.51 2.71-2.71 0-2.37-1.86-2.54-2.87-2.54-5.58 0-10.99 1.01-16.57 1.01-5.24 0-10.48-1.01-15.89-1.01-3.38 0-3.55 1.86-3.55 2.54 0 2.37 1.52 2.71 2.71 2.71 6.42.34 10.65-1.86 10.65 15.39v77.1c0 17.08-4.4 15.22-10.48 15.39-2.03 0-2.54 1.01-2.71 1.52-.17.34 0 .85 0 1.18.17 1.01.17 2.54 2.71 2.54 5.58 0 10.99-1.02 16.57-1.02s10.99 1.02 16.57 1.02c1.35 0 2.87-.34 2.87-2.54 0-2.37-1.69-2.7-2.71-2.7-6.59-.34-10.65 1.18-10.65-15.39v-33.98c0-3.21-1.01-4.56 5.41-4.56 4.57 0 10.82-.17 20.46 19.61l13.7 28.23c2.37 4.73 5.58 11.67 13.7 11.67 4.4 0 2.54-.34 7.78-.34h3.72c2.37-.17 2.87-1.69 2.87-2.54-.02-1.51-.86-2.69-2.72-2.69zm923.12-.17c-3.89-.34-6.76-1.01-9.98-11.33l-28.23-92.15c-.85-2.54-1.69-5.75-2.37-8.45-.51-2.37-.68-4.4-2.87-4.4-1.52 0-1.69 1.35-2.37 3.89-1.01 3.72-1.86 6.93-3.72 13.19l-26.88 87.41c-3.38 11.16-5.75 11.5-9.98 11.67-1.33.05-2.27.18-2.96.37-.14-.01-.27-.03-.42-.03H955c-5.75-.34-8.62-6.26-12.68-14.03l-12.34-23.84c-5.58-10.65-11.5-16.91-20.8-18.43v-.68c5.24-1.52 12.85-5.92 16.74-20.63l3.38-12.68c1.02-4.06 2.71-13.7 6.59-13.7 2.03 0 2.71 1.69 3.38 3.38.84 2.37 2.54 5.75 6.59 5.75 3.72 0 7.78-3.04 7.78-9.3 0-6.42-3.89-10.82-9.81-10.82-11.5 0-16.4 11.83-18.43 18.94l-4.06 13.86c-5.58 19.11-14.54 23.16-20.8 23.16h-3.04c-4.57 0-5.41-.34-5.41-4.4v-29.08c0-17.42 4.9-14.88 10.65-15.39 1.18-.17 2.71-.51 2.71-2.71 0-2.37-1.86-2.54-2.87-2.54-5.58 0-10.99 1.01-16.57 1.01-5.24 0-10.48-1.01-15.89-1.01-3.38 0-3.55 1.86-3.55 2.54 0 2.37 1.52 2.71 2.71 2.71 6.42.34 10.65-1.86 10.65 15.39v77.1c0 17.08-4.4 15.22-10.48 15.39-2.03 0-2.54 1.01-2.71 1.52-.17.34 0 .85 0 1.18.17 1.01.17 2.54 2.71 2.54 5.58 0 10.99-1.02 16.57-1.02s10.99 1.02 16.57 1.02c1.35 0 2.87-.34 2.87-2.54 0-2.37-1.69-2.7-2.71-2.7-6.59-.34-10.65 1.18-10.65-15.39v-33.98c0-3.21-1.01-4.56 5.41-4.56 4.56 0 10.82-.17 20.46 19.61l13.69 28.23c2.37 4.73 5.58 11.67 13.7 11.67 4.4 0 2.54-.34 7.78-.34h3.72c.27-.02.51-.06.74-.11.14.04.28.09.45.11.51.17 1.18 0 1.69 0 4.56-.34 8.96-1.02 13.36-1.02 4.57 0 9.3 1.02 14.03 1.02 1.86 0 2.87-1.02 2.87-2.54 0-2.37-1.35-2.7-3.55-2.87-2.71-.17-10.15-.17-10.15-6.76 0-1.18.51-4.06.85-5.24l6.09-22.65c.68-2.2 1.01-4.06 4.56-4.06h24.18c2.2 0 2.71.17 4.06 4.56l6.76 22.66c.68 2.03 1.02 3.89 1.02 6.25 0 4.9-4.57 4.73-6.76 4.73h-2.87c-2.88.17-2.88 1.86-2.88 2.88 0 1.35-.17 3.04 4.4 3.04 5.75 0 11.33-1.02 17.08-1.02 4.9 0 9.81 1.02 14.88 1.02 2.54 0 2.87-1.02 2.87-2.37-.02-2.7-1.37-2.7-3.74-3.03zm-36.86-43.96h-21.98c-.84 0-2.2-.34-1.18-3.55l11.33-38.55c.34-1.01.51-2.03 1.18-2.03.68 0 .85 1.18 1.02 2.03l11.5 38.04c1.18 3.89-.68 4.06-1.87 4.06zM823.46 86.04c-2.37 0-4.9.17-7.27.34-4.4.34-8.79.85-13.19.85-5.41 0-10.65-.68-16.06-.68-3.38 0-3.55 1.69-3.55 2.54 0 3.04 2.37 2.71 4.9 2.71 7.78.51 8.45 4.06 8.45 15.39v77.1c0 8.62.17 13.69-6.25 15.05-2.37.51-6.09-.51-6.93 1.86-.17.34 0 .85 0 1.18.17 1.01.17 2.54 2.71 2.54 6.09 0 12-1.02 17.92-1.02 5.92 0 11.83 1.02 17.92 1.02 1.86 0 2.54-1.02 2.71-1.52.17-.34 0-.68 0-1.01 0-.34.17-.85 0-1.18-.34-1.35-1.86-1.52-2.54-1.52-9.3-.51-13.36 0-13.36-15.39v-30.8c0-1.86-.17-4.06 1.52-4.06.51 0 1.01.34 4.06 1.35 3.89 1.35 8.79 2.37 13.7 2.37 15.38 0 31.62-11.33 31.62-34.15-.01-32.63-30.44-32.97-36.36-32.97zm.68 60.69c-4.4 0-9.98-1.35-13.02-2.87-1.52-.85-2.2-1.52-2.2-5.24v-32.29c0-7.44.34-9.3 1.01-10.65 2.03-3.72 7.27-3.89 11.33-3.89 16.91 0 25.87 10.31 25.87 27.05 0 19.44-11.66 27.89-22.99 27.89zm-472.39 52.76c-5.07-.17-7.44-1.86-7.78-12l-2.37-82.85c-.34-10.65 1.52-12.34 7.95-12.68 3.04-.17 4.9 0 4.9-2.87 0-2.2-1.52-2.54-2.87-2.54-3.21 0-6.42.34-9.64.34-3.04 0-6.09-.34-9.47-.34-2.37 0-3.55.51-4.06 2.2l-28.74 85.04c-.51 1.35-.68 2.03-.85 2.03s-.51-.68-1.01-2.03l-26.88-84.2c-.84-2.87-.84-3.04-2.37-3.04-4.73 0-4.06.34-10.31.34-6.93 0-8.29-.34-11.33-.34-.85 0-3.38.17-3.38 2.54 0 2.54 2.2 2.71 2.7 2.71 1.69 0 3.38-.17 5.07 0 4.23.34 6.09 2.71 5.58 12.17l-4.4 79.63c-1.01 17.92-5.07 15.55-10.82 16.06-1.35.17-2.71.51-2.71 2.7 0 2.37 2.03 2.54 3.04 2.54 4.73 0 9.3-1.02 13.86-1.02 4.73 0 9.64 1.02 14.37 1.02 1.35 0 2.87-.34 2.87-2.54 0-.51-.17-1.69-.51-2.03-.17-.34-.85-.68-2.37-.68-7.44-.34-12.34 2.2-11.5-18.43l3.04-75.41c0-.84.17-1.35.51-1.35.17 0 .51.34.68.85l27.39 84.88c.51 1.69 1.18 3.38 1.69 5.07.34 1.18.84 2.54 1.18 3.72.17.68.68 1.86 1.69 1.86.85 0 1.18-1.18 1.52-1.86 2.03-5.58 2.54-6.59 3.21-8.79l28.57-85.38c.51-1.35.85-1.86 1.18-1.86s.68.68.68 2.2l1.69 79.13c.34 17.41-5.92 14.88-11.83 15.39-1.35.17-2.71.51-2.71 2.7 0 2.2 1.86 2.54 3.04 2.54 5.58 0 10.99-1.02 16.57-1.02s11.16 1.02 16.74 1.02c1.35 0 2.87-.34 2.87-2.54.06-2.88-1.97-2.71-4.68-2.88zM182.18 82.99c-34.49 0-53.43 33.14-53.43 61.88 0 31.79 18.77 63.57 52.58 63.57 31.45 0 52.41-29.92 52.41-62.73 0-31.27-18.43-62.72-51.56-62.72zm-.85 120.38c-18.09 0-39.06-17.58-39.06-58.5 0-39.06 19.78-56.81 39.06-56.81 21.81 0 38.89 23.67 38.89 59.51 0 30.95-15.56 55.8-38.89 55.8zm499.1-111.58c2.03 0 2.54-1.01 2.71-1.52.17-.34 0-.85 0-1.18-.17-1.01-.17-2.54-2.71-2.54-5.58 0-11.16 1.01-16.57 1.01s-10.99-1.01-16.57-1.01c-1.86 0-2.54 1.01-2.71 1.52-.17.34 0 .68 0 1.01s-.17.84 0 1.18c.34 1.35 1.86 1.52 2.54 1.52 6.42.34 10.65-1.86 10.65 15.39v30.1c0 .84-.17 1.69-1.35 1.69h-47.34c-1.18 0-1.35-.85-1.35-1.69v-30.1c0-17.08 4.4-15.22 10.48-15.39 2.03 0 2.54-1.01 2.71-1.52.17-.34 0-.85 0-1.18-.17-1.01-.17-2.54-2.71-2.54-5.58 0-11.16 1.01-16.57 1.01s-10.99-1.01-16.57-1.01c-1.86 0-2.54 1.01-2.71 1.52-.04.07-.05.15-.06.22-.29-1.61-1.59-1.74-3.66-1.74-4.4 0-8.96.68-13.36.68-4.56 0-8.96-.68-13.53-.68-.85 0-3.38.17-3.38 2.54s1.69 2.71 2.37 2.71l2.37.17c2.2.17 8.96.17 8.96 6.76 0 3.38-2.71 12.17-4.06 15.56l-17.58 45.48c-.84 2.03-.84 4.23-2.03 4.23-1.18 0-1.35-2.2-2.03-4.06l-24.01-57.48c-.68-1.52-1.18-2.87-1.18-4.56 0-5.41 4.56-5.41 6.76-5.41h2.87c1.01 0 3.21 0 3.21-2.88 0-2.37-1.18-3.04-4.4-3.04-5.58 0-11.33 1.01-17.08 1.01-4.9 0-9.81-1.01-14.71-1.01-1.35 0-3.21 0-3.21 2.37 0 1.52.68 2.71 2.54 2.87l2.71.34c4.73.68 7.1 7.1 11.83 18.09l28.57 66.95c1.01 2.37 1.69 3.04.68 6.76-2.87 9.64-6.26 13.19-8.79 13.19-1.69 0-2.87-1.52-3.72-2.54-1.86-2.37-3.38-4.56-6.93-4.56-3.89 0-7.61 3.21-7.61 8.79 0 5.58 4.23 9.64 9.64 9.64 15.22 0 23.33-24.01 26.71-32.8l21.98-57.65c10.31-27.05 8.62-25.36 15.39-25.87l2.2-.17c1.43-.14 2.25-.9 2.47-2.14-.01.16 0 .32.07.45.34 1.35 1.86 1.52 2.54 1.52 6.42.34 10.65-1.86 10.65 15.39v77.1c0 17.08-4.4 15.22-10.48 15.39-2.03 0-2.54 1.01-2.71 1.52-.17.34 0 .85 0 1.18.17 1.01.17 2.54 2.71 2.54 5.58 0 11.16-1.02 16.57-1.02s10.99 1.02 16.57 1.02c1.86 0 2.54-1.02 2.71-1.52.17-.34 0-.68 0-1.01 0-.34.17-.85 0-1.18-.34-1.35-1.86-1.52-2.54-1.52-6.42-.34-10.65 1.86-10.65-15.39v-38.38c0-.85.17-1.69 1.35-1.69h47.34c1.18 0 1.35.84 1.35 1.69v38.38c0 17.08-4.4 15.22-10.48 15.39-2.03 0-2.54 1.01-2.71 1.52-.17.34 0 .85 0 1.18.17 1.01.17 2.54 2.71 2.54 5.58 0 11.16-1.02 16.57-1.02s10.99 1.02 16.57 1.02c1.86 0 2.54-1.02 2.71-1.52.17-.34 0-.68 0-1.01 0-.34.17-.85 0-1.18-.34-1.35-1.86-1.52-2.54-1.52-6.43-.34-10.65 1.86-10.65-15.39v-77.1c0-17.12 4.39-15.26 10.48-15.42zm-202.72 107.7c-5.07-.17-7.44-1.86-7.78-12l-2.37-82.85c-.34-10.65 1.52-12.34 7.95-12.68 3.04-.17 4.9 0 4.9-2.87 0-2.2-1.52-2.54-2.87-2.54-3.21 0-6.42.34-9.64.34-3.04 0-6.09-.34-9.47-.34-2.37 0-3.55.51-4.06 2.2l-28.74 85.04c-.51 1.35-.68 2.03-.85 2.03s-.51-.68-1.01-2.03l-26.88-84.2c-.84-2.87-.84-3.04-2.37-3.04-4.73 0-4.06.34-10.31.34-6.93 0-8.29-.34-11.33-.34-.85 0-3.38.17-3.38 2.54 0 2.54 2.2 2.71 2.7 2.71 1.69 0 3.38-.17 5.07 0 4.23.34 6.09 2.71 5.58 12.17l-4.4 79.63c-1.01 17.92-5.07 15.55-10.82 16.06-1.35.17-2.71.51-2.71 2.7 0 2.37 2.03 2.54 3.04 2.54 4.73 0 9.3-1.02 13.86-1.02 4.73 0 9.64 1.02 14.37 1.02 1.35 0 2.87-.34 2.87-2.54 0-.51-.17-1.69-.51-2.03-.17-.34-.84-.68-2.37-.68-7.44-.34-12.34 2.2-11.5-18.43l3.04-75.41c0-.84.17-1.35.51-1.35.17 0 .51.34.68.85l27.39 84.88c.51 1.69 1.18 3.38 1.69 5.07.34 1.18.85 2.54 1.18 3.72.17.68.68 1.86 1.69 1.86.84 0 1.18-1.18 1.52-1.86 2.03-5.58 2.54-6.59 3.21-8.79l28.57-85.38c.51-1.35.85-1.86 1.18-1.86.34 0 .68.68.68 2.2l1.69 79.13c.34 17.41-5.92 14.88-11.84 15.39-1.35.17-2.71.51-2.71 2.7 0 2.2 1.86 2.54 3.04 2.54 5.58 0 10.99-1.02 16.57-1.02s11.16 1.02 16.74 1.02c1.35 0 2.87-.34 2.87-2.54.07-2.88-1.96-2.71-4.67-2.88zm299.26 0c-3.89-.34-6.76-1.01-9.98-11.33l-28.24-92.15c-.85-2.54-1.69-5.75-2.37-8.45-.51-2.37-.68-4.4-2.87-4.4-1.52 0-1.69 1.35-2.37 3.89-1.01 3.72-1.86 6.93-3.72 13.19l-26.88 87.41c-3.38 11.16-5.75 11.5-9.98 11.67-4.73.17-4.73 1.35-4.73 3.04 0 .51.17 2.2 2.37 2.54.51.17 1.18 0 1.69 0 4.56-.34 8.96-1.02 13.36-1.02 4.57 0 9.3 1.02 14.03 1.02 1.86 0 2.87-1.02 2.87-2.54 0-2.37-1.35-2.7-3.55-2.87-2.71-.17-10.14-.17-10.14-6.76 0-1.18.51-4.06.84-5.24l6.09-22.65c.68-2.2 1.01-4.06 4.57-4.06h24.18c2.2 0 2.71.17 4.06 4.56l6.76 22.66c.68 2.03 1.01 3.89 1.01 6.25 0 4.9-4.57 4.73-6.76 4.73h-2.87c-2.87.17-2.87 1.86-2.87 2.88 0 1.35-.17 3.04 4.4 3.04 5.75 0 11.33-1.02 17.08-1.02 4.9 0 9.81 1.02 14.88 1.02 2.54 0 2.88-1.02 2.88-2.37-.02-2.71-1.38-2.71-3.74-3.04zm-36.86-43.96h-21.98c-.85 0-2.2-.34-1.18-3.55l11.33-38.55c.34-1.01.51-2.03 1.18-2.03s.85 1.18 1.01 2.03l11.5 38.04c1.18 3.89-.68 4.06-1.86 4.06zM629.47 36.14c-1.43 3.96-2.41 8.57-2.69 12.37h3.27c.41-4.86 1.39-8.57 2.53-11.8 1.39-3.96 3.71-8.2 6.12-11.31v-2.61h-15.84v3.02h11.72c-2.29 3.59-3.93 7.1-5.11 10.33zm20.74-1.84c3.47 0 6.2-2.73 6.2-6.2s-2.74-6.21-6.2-6.21c-3.47 0-6.21 2.74-6.21 6.21 0 3.47 2.74 6.2 6.21 6.2zm0-9.14c1.59 0 2.94 1.35 2.94 2.94s-1.35 2.94-2.94 2.94-2.94-1.35-2.94-2.94 1.34-2.94 2.94-2.94zm153.46 20.33H792.2l.16-.57c.33-1.23.61-2.2 6.41-6.45 1.92-1.43 4.74-3.67 4.74-8.25 0-2.73-1.1-8-7.02-8-6.25 0-7.63 5.18-7.63 8.04v1.47h3.27c-.2-5.02 1.8-6.49 4.29-6.49 1.67 0 3.84.98 3.84 5.31 0 2.33-.73 3.51-3.92 5.8-4.69 3.39-7.55 5.92-7.55 10.53v1.63h14.9v-3.02zm10.41-9.35c-1.43 3.96-2.41 8.57-2.69 12.37h3.27c.41-4.86 1.39-8.57 2.53-11.8 1.39-3.96 3.71-8.2 6.12-11.31v-2.61h-15.84v3.02h11.71c-2.28 3.59-3.92 7.1-5.1 10.33zm202.86-6.86l1.63-6.04h-4.9l1.35 6.04zm6.9 0l1.3-6.04h-4.9l1.68 6.04zm-188.08 0l1.46-6.04h-4.89l1.51 6.04zm211.63 16.21h-11.51v-8.98h10.24v-3.02h-10.24v-7.68h11.18v-3.02h-14.45v25.72h14.78zm-46.7 3.02h3.27V22.79h-3.06l-.04 1.1c-.12 2.98-4.08 3.02-6.9 3.02v2.74h6.73v18.86zm-389.47-2.37c-3.71 0-4.04-4.37-4.04-5.84h-3.27c.04 3.23 1.02 8.86 7.47 8.86 7.02 0 7.02-7.8 7.02-8.16 0-2.94-.98-5.75-3.51-6.24v-.12c1.76-.61 2.74-3.14 2.74-5.51 0-3.39-1.96-6.9-6.61-6.9-6.08 0-6.9 5.67-6.82 8.94h3.26c-.2-5.02 2-5.92 3.51-5.92 1.18 0 3.39.57 3.39 4.12 0 2.08-.86 3.84-2.98 3.84h-1.8v3.02h1.75c3.8 0 3.8 4.16 3.8 4.82.01 3.66-1.78 5.09-3.91 5.09zm377.06-.65h-11.47l.16-.57c.33-1.23.61-2.2 6.41-6.45 1.92-1.43 4.74-3.67 4.74-8.25 0-2.73-1.1-8-7.02-8-6.25 0-7.63 5.18-7.63 8.04v1.47h3.27c-.2-5.02 1.8-6.49 4.29-6.49 1.67 0 3.84.98 3.84 5.31 0 2.33-.73 3.51-3.92 5.8-4.69 3.39-7.55 5.92-7.55 10.53v1.63h14.9v-3.02zm-744.61 3.02h3.27v-5.92h3.18v-3.02h-3.18V22.79h-3.43l-9.43 16.65v3.14h9.59v5.93zm-6.16-8.94l6.16-10.94v10.94h-6.16zM76.98 34.3c3.47 0 6.2-2.73 6.2-6.2s-2.73-6.21-6.2-6.21-6.2 2.74-6.2 6.21c0 3.47 2.73 6.2 6.2 6.2zm0-9.14c1.59 0 2.94 1.35 2.94 2.94s-1.35 2.94-2.94 2.94c-1.59 0-2.94-1.35-2.94-2.94s1.35-2.94 2.94-2.94zm-31.1 14.86c0-4.41-2.37-8.53-7.02-8.53-1.59 0-2.49.16-3.67 1.02l-.12-.04.08-.33.74-6.33h8.9v-3.02H33.18l-1.67 14.25h2.94c.49-1.39 1.76-2.53 3.88-2.53 2.16 0 4.29 1.63 4.29 5.63 0 2.94-1.18 6-4.49 6-3.18 0-3.84-2.78-3.92-4.61h-3.27c0 3.27 1.75 7.63 7.18 7.63 4.86 0 7.76-3.67 7.76-9.14zm176.73 6.12c-3.71 0-4.04-4.37-4.04-5.84h-3.27c.04 3.23 1.02 8.86 7.47 8.86 7.02 0 7.02-7.8 7.02-8.16 0-2.94-.98-5.75-3.51-6.24v-.12c1.75-.61 2.73-3.14 2.73-5.51 0-3.39-1.96-6.9-6.61-6.9-6.08 0-6.9 5.67-6.82 8.94h3.27c-.2-5.02 2-5.92 3.51-5.92 1.18 0 3.39.57 3.39 4.12 0 2.08-.86 3.84-2.98 3.84h-1.8v3.02h1.76c3.8 0 3.8 4.16 3.8 4.82 0 3.66-1.79 5.09-3.92 5.09zm-165.1 0c-3.18 0-3.84-2.78-3.92-4.61h-3.26c0 3.27 1.75 7.63 7.18 7.63 4.86 0 7.75-3.67 7.75-9.14 0-4.41-2.37-8.53-7.02-8.53-1.59 0-2.49.16-3.67 1.02l-.12-.04.08-.33.73-6.33h8.9v-3.02H52.57L50.9 37.04h2.94c.49-1.39 1.75-2.53 3.88-2.53 2.16 0 4.29 1.63 4.29 5.63-.01 2.94-1.19 6-4.5 6zm205.02-16.86l1.47-6.04h-4.9l1.51 6.04zm181.19 0l1.63-6.04h-4.9l1.35 6.04zm6.89 0l1.31-6.04h-4.9l1.68 6.04zM408.9 48.51h3.27v-5.92h3.18v-3.02h-3.18V22.79h-3.43l-9.43 16.65v3.14h9.59v5.93zm-6.17-8.94l6.16-10.94v10.94h-6.16zm59.19-9.02l7.35 17.96h3.22V22.79h-3.26v17.88l-7.43-17.88h-3.15v25.72h3.27zm-35.18 15.59c-3.18 0-3.84-2.78-3.92-4.61h-3.27c0 3.27 1.76 7.63 7.18 7.63 4.86 0 7.76-3.67 7.76-9.14 0-4.41-2.37-8.53-7.02-8.53-1.59 0-2.49.16-3.67 1.02l-.12-.04.08-.33.74-6.33h8.9v-3.02h-11.6l-1.67 14.25h2.94c.49-1.39 1.75-2.53 3.88-2.53 2.16 0 4.29 1.63 4.29 5.63-.01 2.94-1.2 6-4.5 6z"/></svg>
