<svg width="1020" height="187" viewBox="0 0 1020 187" fill="none" xmlns="http://www.w3.org/2000/svg">
<path d="M92.74 177.77H90.71C84.96 177.43 82.09 171.51 78.03 163.74L65.69 139.9C60.11 129.25 54.19 122.99 44.89 121.47V120.79C50.13 119.27 57.74 114.87 61.63 100.16L65.01 87.48C66.03 83.42 67.72 73.78 71.6 73.78C73.63 73.78 74.31 75.47 74.98 77.16C75.82 79.53 77.52 82.91 81.57 82.91C85.29 82.91 89.35 79.87 89.35 73.61C89.35 67.19 85.46 62.79 79.54 62.79C68.04 62.79 63.14 74.62 61.11 81.73L57.06 95.59C51.48 114.7 42.52 118.75 36.26 118.75H33.22C28.66 118.75 27.81 118.41 27.81 114.35V85.27C27.81 67.85 32.71 70.39 38.46 69.88C39.64 69.71 41.17 69.37 41.17 67.17C41.17 64.8 39.31 64.63 38.3 64.63C32.72 64.63 27.31 65.64 21.73 65.64C16.49 65.64 11.25 64.63 5.84 64.63C2.46 64.63 2.29 66.49 2.29 67.17C2.29 69.54 3.81 69.88 5 69.88C11.42 70.22 15.65 68.02 15.65 85.27V162.37C15.65 179.45 11.25 177.59 5.17 177.76C3.14 177.76 2.63 178.77 2.46 179.28C2.29 179.62 2.46 180.13 2.46 180.46C2.63 181.47 2.63 183 5.17 183C10.75 183 16.16 181.98 21.74 181.98C27.32 181.98 32.73 183 38.31 183C39.66 183 41.18 182.66 41.18 180.46C41.18 178.09 39.49 177.76 38.47 177.76C31.88 177.42 27.82 178.94 27.82 162.37V128.39C27.82 125.18 26.81 123.83 33.23 123.83C37.8 123.83 44.05 123.66 53.69 143.44L67.39 171.67C69.76 176.4 72.97 183.34 81.09 183.34C85.49 183.34 83.63 183 88.87 183H92.59C94.96 182.83 95.46 181.31 95.46 180.46C95.44 178.95 94.6 177.77 92.74 177.77ZM1015.86 177.6C1011.97 177.26 1009.1 176.59 1005.88 166.27L977.65 74.12C976.8 71.58 975.96 68.37 975.28 65.67C974.77 63.3 974.6 61.27 972.41 61.27C970.89 61.27 970.72 62.62 970.04 65.16C969.03 68.88 968.18 72.09 966.32 78.35L939.44 165.76C936.06 176.92 933.69 177.26 929.46 177.43C928.13 177.48 927.19 177.61 926.5 177.8C926.36 177.79 926.23 177.77 926.08 177.77H924.06C918.31 177.43 915.44 171.51 911.38 163.74L899.04 139.9C893.46 129.25 887.54 122.99 878.24 121.47V120.79C883.48 119.27 891.09 114.87 894.98 100.16L898.36 87.48C899.38 83.42 901.07 73.78 904.95 73.78C906.98 73.78 907.66 75.47 908.33 77.16C909.17 79.53 910.87 82.91 914.92 82.91C918.64 82.91 922.7 79.87 922.7 73.61C922.7 67.19 918.81 62.79 912.89 62.79C901.39 62.79 896.49 74.62 894.46 81.73L890.4 95.59C884.82 114.7 875.86 118.75 869.6 118.75H866.56C861.99 118.75 861.15 118.41 861.15 114.35V85.27C861.15 67.85 866.05 70.39 871.8 69.88C872.98 69.71 874.51 69.37 874.51 67.17C874.51 64.8 872.65 64.63 871.64 64.63C866.06 64.63 860.65 65.64 855.07 65.64C849.83 65.64 844.59 64.63 839.18 64.63C835.8 64.63 835.63 66.49 835.63 67.17C835.63 69.54 837.15 69.88 838.34 69.88C844.76 70.22 848.99 68.02 848.99 85.27V162.37C848.99 179.45 844.59 177.59 838.51 177.76C836.48 177.76 835.97 178.77 835.8 179.28C835.63 179.62 835.8 180.13 835.8 180.46C835.97 181.47 835.97 183 838.51 183C844.09 183 849.5 181.98 855.08 181.98C860.66 181.98 866.07 183 871.65 183C873 183 874.52 182.66 874.52 180.46C874.52 178.09 872.83 177.76 871.81 177.76C865.22 177.42 861.16 178.94 861.16 162.37V128.39C861.16 125.18 860.15 123.83 866.57 123.83C871.13 123.83 877.39 123.66 887.03 143.44L900.72 171.67C903.09 176.4 906.3 183.34 914.42 183.34C918.82 183.34 916.96 183 922.2 183H925.92C926.19 182.98 926.43 182.94 926.66 182.89C926.8 182.93 926.94 182.98 927.11 183C927.62 183.17 928.29 183 928.8 183C933.36 182.66 937.76 181.98 942.16 181.98C946.73 181.98 951.46 183 956.19 183C958.05 183 959.06 181.98 959.06 180.46C959.06 178.09 957.71 177.76 955.51 177.59C952.8 177.42 945.36 177.42 945.36 170.83C945.36 169.65 945.87 166.77 946.21 165.59L952.3 142.94C952.98 140.74 953.31 138.88 956.86 138.88H981.04C983.24 138.88 983.75 139.05 985.1 143.44L991.86 166.1C992.54 168.13 992.88 169.99 992.88 172.35C992.88 177.25 988.31 177.08 986.12 177.08H983.25C980.37 177.25 980.37 178.94 980.37 179.96C980.37 181.31 980.2 183 984.77 183C990.52 183 996.1 181.98 1001.85 181.98C1006.75 181.98 1011.66 183 1016.73 183C1019.27 183 1019.6 181.98 1019.6 180.63C1019.58 177.93 1018.23 177.93 1015.86 177.6ZM979 133.64H957.02C956.18 133.64 954.82 133.3 955.84 130.09L967.17 91.54C967.51 90.53 967.68 89.51 968.35 89.51C969.03 89.51 969.2 90.69 969.37 91.54L980.87 129.58C982.05 133.47 980.19 133.64 979 133.64ZM792.52 64.15C790.15 64.15 787.62 64.32 785.25 64.49C780.85 64.83 776.46 65.34 772.06 65.34C766.65 65.34 761.41 64.66 756 64.66C752.62 64.66 752.45 66.35 752.45 67.2C752.45 70.24 754.82 69.91 757.35 69.91C765.13 70.42 765.8 73.97 765.8 85.3V162.4C765.8 171.02 765.97 176.09 759.55 177.45C757.18 177.96 753.46 176.94 752.62 179.31C752.45 179.65 752.62 180.16 752.62 180.49C752.79 181.5 752.79 183.03 755.33 183.03C761.42 183.03 767.33 182.01 773.25 182.01C779.17 182.01 785.08 183.03 791.17 183.03C793.03 183.03 793.71 182.01 793.88 181.51C794.05 181.17 793.88 180.83 793.88 180.5C793.88 180.16 794.05 179.65 793.88 179.32C793.54 177.97 792.02 177.8 791.34 177.8C782.04 177.29 777.98 177.8 777.98 162.41V131.61C777.98 129.75 777.81 127.55 779.5 127.55C780.01 127.55 780.51 127.89 783.56 128.9C787.45 130.25 792.35 131.27 797.26 131.27C812.64 131.27 828.88 119.94 828.88 97.12C828.87 64.49 798.44 64.15 792.52 64.15ZM793.2 124.84C788.8 124.84 783.22 123.49 780.18 121.97C778.66 121.12 777.98 120.45 777.98 116.73V84.44C777.98 77 778.32 75.14 778.99 73.79C781.02 70.07 786.26 69.9 790.32 69.9C807.23 69.9 816.19 80.21 816.19 96.95C816.19 116.39 804.53 124.84 793.2 124.84ZM320.81 177.6C315.74 177.43 313.37 175.74 313.03 165.6L310.66 82.75C310.32 72.1 312.18 70.41 318.61 70.07C321.65 69.9 323.51 70.07 323.51 67.2C323.51 65 321.99 64.66 320.64 64.66C317.43 64.66 314.22 65 311 65C307.96 65 304.91 64.66 301.53 64.66C299.16 64.66 297.98 65.17 297.47 66.86L268.73 151.9C268.22 153.25 268.05 153.93 267.88 153.93C267.71 153.93 267.37 153.25 266.87 151.9L239.99 67.7C239.15 64.83 239.15 64.66 237.62 64.66C232.89 64.66 233.56 65 227.31 65C220.38 65 219.02 64.66 215.98 64.66C215.13 64.66 212.6 64.83 212.6 67.2C212.6 69.74 214.8 69.91 215.3 69.91C216.99 69.91 218.68 69.74 220.37 69.91C224.6 70.25 226.46 72.62 225.95 82.08L221.55 161.71C220.54 179.63 216.48 177.26 210.73 177.77C209.38 177.94 208.02 178.28 208.02 180.47C208.02 182.84 210.05 183.01 211.06 183.01C215.79 183.01 220.36 181.99 224.92 181.99C229.65 181.99 234.56 183.01 239.29 183.01C240.64 183.01 242.16 182.67 242.16 180.47C242.16 179.96 241.99 178.78 241.65 178.44C241.48 178.1 240.8 177.76 239.28 177.76C231.84 177.42 226.94 179.96 227.78 159.33L230.82 83.92C230.82 83.08 230.99 82.57 231.33 82.57C231.5 82.57 231.84 82.91 232.01 83.42L259.4 168.3C259.91 169.99 260.58 171.68 261.09 173.37C261.43 174.55 261.93 175.91 262.27 177.09C262.44 177.77 262.95 178.95 263.96 178.95C264.81 178.95 265.14 177.77 265.48 177.09C267.51 171.51 268.02 170.5 268.69 168.3L297.26 82.92C297.77 81.57 298.11 81.06 298.44 81.06C298.77 81.06 299.12 81.74 299.12 83.26L300.81 162.39C301.15 179.8 294.89 177.27 288.98 177.78C287.63 177.95 286.27 178.29 286.27 180.48C286.27 182.68 288.13 183.02 289.31 183.02C294.89 183.02 300.3 182 305.88 182C311.46 182 317.04 183.02 322.62 183.02C323.97 183.02 325.49 182.68 325.49 180.48C325.55 177.6 323.52 177.77 320.81 177.6ZM151.24 61.1C116.75 61.1 97.81 94.24 97.81 122.98C97.81 154.77 116.58 186.55 150.39 186.55C181.84 186.55 202.8 156.63 202.8 123.82C202.8 92.55 184.37 61.1 151.24 61.1ZM150.39 181.48C132.3 181.48 111.33 163.9 111.33 122.98C111.33 83.92 131.11 66.17 150.39 66.17C172.2 66.17 189.28 89.84 189.28 125.68C189.28 156.63 173.72 181.48 150.39 181.48ZM649.49 69.9C651.52 69.9 652.03 68.89 652.2 68.38C652.37 68.04 652.2 67.53 652.2 67.2C652.03 66.19 652.03 64.66 649.49 64.66C643.91 64.66 638.33 65.67 632.92 65.67C627.51 65.67 621.93 64.66 616.35 64.66C614.49 64.66 613.81 65.67 613.64 66.18C613.47 66.52 613.64 66.86 613.64 67.19C613.64 67.52 613.47 68.03 613.64 68.37C613.98 69.72 615.5 69.89 616.18 69.89C622.6 70.23 626.83 68.03 626.83 85.28V115.38C626.83 116.22 626.66 117.07 625.48 117.07H578.14C576.96 117.07 576.79 116.22 576.79 115.38V85.28C576.79 68.2 581.19 70.06 587.27 69.89C589.3 69.89 589.81 68.88 589.98 68.37C590.15 68.03 589.98 67.52 589.98 67.19C589.81 66.18 589.81 64.65 587.27 64.65C581.69 64.65 576.11 65.66 570.7 65.66C565.29 65.66 559.71 64.65 554.13 64.65C552.27 64.65 551.59 65.66 551.42 66.17C551.38 66.24 551.37 66.32 551.36 66.39C551.07 64.78 549.77 64.65 547.7 64.65C543.3 64.65 538.74 65.33 534.34 65.33C529.78 65.33 525.38 64.65 520.81 64.65C519.96 64.65 517.43 64.82 517.43 67.19C517.43 69.56 519.12 69.9 519.8 69.9L522.17 70.07C524.37 70.24 531.13 70.24 531.13 76.83C531.13 80.21 528.42 89 527.07 92.39L509.49 137.87C508.65 139.9 508.65 142.1 507.46 142.1C506.28 142.1 506.11 139.9 505.43 138.04L481.42 80.56C480.74 79.04 480.24 77.69 480.24 76C480.24 70.59 484.8 70.59 487 70.59H489.87C490.88 70.59 493.08 70.59 493.08 67.71C493.08 65.34 491.9 64.67 488.68 64.67C483.1 64.67 477.35 65.68 471.6 65.68C466.7 65.68 461.79 64.67 456.89 64.67C455.54 64.67 453.68 64.67 453.68 67.04C453.68 68.56 454.36 69.75 456.22 69.91L458.93 70.25C463.66 70.93 466.03 77.35 470.76 88.34L499.33 155.29C500.34 157.66 501.02 158.33 500.01 162.05C497.14 171.69 493.75 175.24 491.22 175.24C489.53 175.24 488.35 173.72 487.5 172.7C485.64 170.33 484.12 168.14 480.57 168.14C476.68 168.14 472.96 171.35 472.96 176.93C472.96 182.51 477.19 186.57 482.6 186.57C497.82 186.57 505.93 162.56 509.31 153.77L531.29 96.12C541.6 69.07 539.91 70.76 546.68 70.25L548.88 70.08C550.31 69.94 551.13 69.18 551.35 67.94C551.34 68.1 551.35 68.26 551.42 68.39C551.76 69.74 553.28 69.91 553.96 69.91C560.38 70.25 564.61 68.05 564.61 85.3V162.4C564.61 179.48 560.21 177.62 554.13 177.79C552.1 177.79 551.59 178.8 551.42 179.31C551.25 179.65 551.42 180.16 551.42 180.49C551.59 181.5 551.59 183.03 554.13 183.03C559.71 183.03 565.29 182.01 570.7 182.01C576.11 182.01 581.69 183.03 587.27 183.03C589.13 183.03 589.81 182.01 589.98 181.51C590.15 181.17 589.98 180.83 589.98 180.5C589.98 180.16 590.15 179.65 589.98 179.32C589.64 177.97 588.12 177.8 587.44 177.8C581.02 177.46 576.79 179.66 576.79 162.41V124.03C576.79 123.18 576.96 122.34 578.14 122.34H625.48C626.66 122.34 626.83 123.18 626.83 124.03V162.41C626.83 179.49 622.43 177.63 616.35 177.8C614.32 177.8 613.81 178.81 613.64 179.32C613.47 179.66 613.64 180.17 613.64 180.5C613.81 181.51 613.81 183.04 616.35 183.04C621.93 183.04 627.51 182.02 632.92 182.02C638.33 182.02 643.91 183.04 649.49 183.04C651.35 183.04 652.03 182.02 652.2 181.52C652.37 181.18 652.2 180.84 652.2 180.51C652.2 180.17 652.37 179.66 652.2 179.33C651.86 177.98 650.34 177.81 649.66 177.81C643.23 177.47 639.01 179.67 639.01 162.42V85.32C639.01 68.2 643.4 70.06 649.49 69.9ZM446.77 177.6C441.7 177.43 439.33 175.74 438.99 165.6L436.62 82.75C436.28 72.1 438.14 70.41 444.57 70.07C447.61 69.9 449.47 70.07 449.47 67.2C449.47 65 447.95 64.66 446.6 64.66C443.39 64.66 440.18 65 436.96 65C433.92 65 430.87 64.66 427.49 64.66C425.12 64.66 423.94 65.17 423.43 66.86L394.69 151.9C394.18 153.25 394.01 153.93 393.84 153.93C393.67 153.93 393.33 153.25 392.83 151.9L365.95 67.7C365.11 64.83 365.11 64.66 363.58 64.66C358.85 64.66 359.52 65 353.27 65C346.34 65 344.98 64.66 341.94 64.66C341.09 64.66 338.56 64.83 338.56 67.2C338.56 69.74 340.76 69.91 341.26 69.91C342.95 69.91 344.64 69.74 346.33 69.91C350.56 70.25 352.42 72.62 351.91 82.08L347.51 161.71C346.5 179.63 342.44 177.26 336.69 177.77C335.34 177.94 333.98 178.28 333.98 180.47C333.98 182.84 336.01 183.01 337.02 183.01C341.75 183.01 346.32 181.99 350.88 181.99C355.61 181.99 360.52 183.01 365.25 183.01C366.6 183.01 368.12 182.67 368.12 180.47C368.12 179.96 367.95 178.78 367.61 178.44C367.44 178.1 366.77 177.76 365.24 177.76C357.8 177.42 352.9 179.96 353.74 159.33L356.78 83.92C356.78 83.08 356.95 82.57 357.29 82.57C357.46 82.57 357.8 82.91 357.97 83.42L385.36 168.3C385.87 169.99 386.54 171.68 387.05 173.37C387.39 174.55 387.9 175.91 388.23 177.09C388.4 177.77 388.91 178.95 389.92 178.95C390.76 178.95 391.1 177.77 391.44 177.09C393.47 171.51 393.98 170.5 394.65 168.3L423.22 82.92C423.73 81.57 424.07 81.06 424.4 81.06C424.74 81.06 425.08 81.74 425.08 83.26L426.77 162.39C427.11 179.8 420.85 177.27 414.93 177.78C413.58 177.95 412.22 178.29 412.22 180.48C412.22 182.68 414.08 183.02 415.26 183.02C420.84 183.02 426.25 182 431.83 182C437.41 182 442.99 183.02 448.57 183.02C449.92 183.02 451.44 182.68 451.44 180.48C451.51 177.6 449.48 177.77 446.77 177.6ZM746.03 177.6C742.14 177.26 739.27 176.59 736.05 166.27L707.81 74.12C706.96 71.58 706.12 68.37 705.44 65.67C704.93 63.3 704.76 61.27 702.57 61.27C701.05 61.27 700.88 62.62 700.2 65.16C699.19 68.88 698.34 72.09 696.48 78.35L669.6 165.76C666.22 176.92 663.85 177.26 659.62 177.43C654.89 177.6 654.89 178.78 654.89 180.47C654.89 180.98 655.06 182.67 657.26 183.01C657.77 183.18 658.44 183.01 658.95 183.01C663.51 182.67 667.91 181.99 672.31 181.99C676.88 181.99 681.61 183.01 686.34 183.01C688.2 183.01 689.21 181.99 689.21 180.47C689.21 178.1 687.86 177.77 685.66 177.6C682.95 177.43 675.52 177.43 675.52 170.84C675.52 169.66 676.03 166.78 676.36 165.6L682.45 142.95C683.13 140.75 683.46 138.89 687.02 138.89H711.2C713.4 138.89 713.91 139.06 715.26 143.45L722.02 166.11C722.7 168.14 723.03 170 723.03 172.36C723.03 177.26 718.46 177.09 716.27 177.09H713.4C710.53 177.26 710.53 178.95 710.53 179.97C710.53 181.32 710.36 183.01 714.93 183.01C720.68 183.01 726.26 181.99 732.01 181.99C736.91 181.99 741.82 183.01 746.89 183.01C749.43 183.01 749.77 181.99 749.77 180.64C749.75 177.93 748.39 177.93 746.03 177.6ZM709.17 133.64H687.19C686.34 133.64 684.99 133.3 686.01 130.09L697.34 91.54C697.68 90.53 697.85 89.51 698.52 89.51C699.19 89.51 699.37 90.69 699.53 91.54L711.03 129.58C712.21 133.47 710.35 133.64 709.17 133.64ZM598.53 14.25C597.1 18.21 596.12 22.82 595.84 26.62H599.11C599.52 21.76 600.5 18.05 601.64 14.82C603.03 10.86 605.35 6.62 607.76 3.51V0.900002H591.92V3.92H603.64C601.35 7.51 599.71 11.02 598.53 14.25ZM619.27 12.41C622.74 12.41 625.47 9.68 625.47 6.21C625.47 2.74 622.73 0 619.27 0C615.8 0 613.06 2.74 613.06 6.21C613.06 9.68 615.8 12.41 619.27 12.41ZM619.27 3.27C620.86 3.27 622.21 4.62 622.21 6.21C622.21 7.8 620.86 9.15 619.27 9.15C617.68 9.15 616.33 7.8 616.33 6.21C616.33 4.62 617.67 3.27 619.27 3.27ZM772.73 23.6H761.26L761.42 23.03C761.75 21.8 762.03 20.83 767.83 16.58C769.75 15.15 772.57 12.91 772.57 8.33C772.57 5.6 771.47 0.33 765.55 0.33C759.3 0.33 757.92 5.51 757.92 8.37V9.84H761.19C760.99 4.82 762.99 3.35 765.48 3.35C767.15 3.35 769.32 4.33 769.32 8.66C769.32 10.99 768.59 12.17 765.4 14.46C760.71 17.85 757.85 20.38 757.85 24.99V26.62H772.75V23.6H772.73ZM783.14 14.25C781.71 18.21 780.73 22.82 780.45 26.62H783.72C784.13 21.76 785.11 18.05 786.25 14.82C787.64 10.86 789.96 6.62 792.37 3.51V0.900002H776.53V3.92H788.24C785.96 7.51 784.32 11.02 783.14 14.25ZM986 7.39L987.63 1.35H982.73L984.08 7.39H986ZM992.9 7.39L994.2 1.35H989.3L990.98 7.39H992.9ZM804.82 7.39L806.28 1.35H801.39L802.9 7.39H804.82ZM1016.45 23.6H1004.94V14.62H1015.18V11.6H1004.94V3.92H1016.12V0.900002H1001.67V26.62H1016.45V23.6ZM969.75 26.62H973.02V0.900002H969.96L969.92 2C969.8 4.98 965.84 5.02 963.02 5.02V7.76H969.75V26.62ZM580.28 24.25C576.57 24.25 576.24 19.88 576.24 18.41H572.97C573.01 21.64 573.99 27.27 580.44 27.27C587.46 27.27 587.46 19.47 587.46 19.11C587.46 16.17 586.48 13.36 583.95 12.87V12.75C585.71 12.14 586.69 9.61 586.69 7.24C586.69 3.85 584.73 0.34 580.08 0.34C574 0.34 573.18 6.01 573.26 9.28H576.52C576.32 4.26 578.52 3.36 580.03 3.36C581.21 3.36 583.42 3.93 583.42 7.48C583.42 9.56 582.56 11.32 580.44 11.32H578.64V14.34H580.39C584.19 14.34 584.19 18.5 584.19 19.16C584.2 22.82 582.41 24.25 580.28 24.25ZM957.34 23.6H945.87L946.03 23.03C946.36 21.8 946.64 20.83 952.44 16.58C954.36 15.15 957.18 12.91 957.18 8.33C957.18 5.6 956.08 0.33 950.16 0.33C943.91 0.33 942.53 5.51 942.53 8.37V9.84H945.8C945.6 4.82 947.6 3.35 950.09 3.35C951.76 3.35 953.93 4.33 953.93 8.66C953.93 10.99 953.2 12.17 950.01 14.46C945.32 17.85 942.46 20.38 942.46 24.99V26.62H957.36V23.6H957.34ZM212.73 26.62H216V20.7H219.18V17.68H216V0.900002H212.57L203.14 17.55V20.69H212.73V26.62ZM206.57 17.68L212.73 6.74V17.68H206.57ZM46.04 12.41C49.51 12.41 52.24 9.68 52.24 6.21C52.24 2.74 49.51 0 46.04 0C42.57 0 39.84 2.74 39.84 6.21C39.84 9.68 42.57 12.41 46.04 12.41ZM46.04 3.27C47.63 3.27 48.98 4.62 48.98 6.21C48.98 7.8 47.63 9.15 46.04 9.15C44.45 9.15 43.1 7.8 43.1 6.21C43.1 4.62 44.45 3.27 46.04 3.27ZM14.94 18.13C14.94 13.72 12.57 9.6 7.92 9.6C6.33 9.6 5.43 9.76 4.25 10.62L4.13 10.58L4.21 10.25L4.95 3.92H13.85V0.900002H2.24L0.57 15.15H3.51C4 13.76 5.27 12.62 7.39 12.62C9.55 12.62 11.68 14.25 11.68 18.25C11.68 21.19 10.5 24.25 7.19 24.25C4.01 24.25 3.35 21.47 3.27 19.64H0C0 22.91 1.75 27.27 7.18 27.27C12.04 27.27 14.94 23.6 14.94 18.13ZM191.67 24.25C187.96 24.25 187.63 19.88 187.63 18.41H184.36C184.4 21.64 185.38 27.27 191.83 27.27C198.85 27.27 198.85 19.47 198.85 19.11C198.85 16.17 197.87 13.36 195.34 12.87V12.75C197.09 12.14 198.07 9.61 198.07 7.24C198.07 3.85 196.11 0.34 191.46 0.34C185.38 0.34 184.56 6.01 184.64 9.28H187.91C187.71 4.26 189.91 3.36 191.42 3.36C192.6 3.36 194.81 3.93 194.81 7.48C194.81 9.56 193.95 11.32 191.83 11.32H190.03V14.34H191.79C195.59 14.34 195.59 18.5 195.59 19.16C195.59 22.82 193.8 24.25 191.67 24.25ZM26.57 24.25C23.39 24.25 22.73 21.47 22.65 19.64H19.39C19.39 22.91 21.14 27.27 26.57 27.27C31.43 27.27 34.32 23.6 34.32 18.13C34.32 13.72 31.95 9.6 27.3 9.6C25.71 9.6 24.81 9.76 23.63 10.62L23.51 10.58L23.59 10.25L24.32 3.92H33.22V0.900002H21.63L19.96 15.15H22.9C23.39 13.76 24.65 12.62 26.78 12.62C28.94 12.62 31.07 14.25 31.07 18.25C31.06 21.19 29.88 24.25 26.57 24.25ZM231.59 7.39L233.06 1.35H228.16L229.67 7.39H231.59ZM412.78 7.39L414.41 1.35H409.51L410.86 7.39H412.78ZM419.67 7.39L420.98 1.35H416.08L417.76 7.39H419.67ZM377.96 26.62H381.23V20.7H384.41V17.68H381.23V0.900002H377.8L368.37 17.55V20.69H377.96V26.62ZM371.79 17.68L377.95 6.74V17.68H371.79ZM430.98 8.66L438.33 26.62H441.55V0.900002H438.29V18.78L430.86 0.900002H427.71V26.62H430.98V8.66ZM395.8 24.25C392.62 24.25 391.96 21.47 391.88 19.64H388.61C388.61 22.91 390.37 27.27 395.79 27.27C400.65 27.27 403.55 23.6 403.55 18.13C403.55 13.72 401.18 9.6 396.53 9.6C394.94 9.6 394.04 9.76 392.86 10.62L392.74 10.58L392.82 10.25L393.56 3.92H402.46V0.900002H390.86L389.19 15.15H392.13C392.62 13.76 393.88 12.62 396.01 12.62C398.17 12.62 400.3 14.25 400.3 18.25C400.29 21.19 399.1 24.25 395.8 24.25Z" fill="white"/>
</svg>
